<?xml version="1.0" ?><svg data-name="Layer 1" id="Layer_1" viewBox="0 0 50 50" xmlns="http://www.w3.org/2000/svg"><title/><path d="M46.35,24.05A2.65,2.65,0,0,0,49,21.4V9.83a2.65,2.65,0,0,0-2.65-2.65H3.65A2.65,2.65,0,0,0,1,9.83V21.4a2.65,2.65,0,0,0,2.65,2.65H7.94V26H3.65A2.65,2.65,0,0,0,1,28.6V40.17a2.65,2.65,0,0,0,2.65,2.65h42.7A2.65,2.65,0,0,0,49,40.17V28.6A2.65,2.65,0,0,0,46.35,26H42.06v-1.9ZM3,21.4V9.83a.65.65,0,0,1,.65-.65h42.7a.65.65,0,0,1,.65.65V21.4a.65.65,0,0,1-.65.65H3.65A.65.65,0,0,1,3,21.4Zm44,7.2V40.17a.65.65,0,0,1-.65.65H3.65A.65.65,0,0,1,3,40.17V28.6A.65.65,0,0,1,3.65,28h42.7A.65.65,0,0,1,47,28.6ZM40.06,26H9.94v-1.9H40.06Z"/><path d="M30.23,15.61a1,1,0,0,0-1-1h-21a1,1,0,1,0,0,2h21A1,1,0,0,0,30.23,15.61Z"/><path d="M35.42,18.16a1,1,0,0,0,1-1V14.07a1,1,0,0,0-2,0v3.09A1,1,0,0,0,35.42,18.16Z"/><path d="M41,18.16a1,1,0,0,0,1-1V14.07a1,1,0,0,0-2,0v3.09A1,1,0,0,0,41,18.16Z"/><path d="M29.23,33.39h-21a1,1,0,1,0,0,2h21a1,1,0,1,0,0-2Z"/><path d="M35.42,31.84a1,1,0,0,0-1,1v3.09a1,1,0,0,0,2,0V32.84A1,1,0,0,0,35.42,31.84Z"/><path d="M40,32.84v3.09a1,1,0,0,0,2,0V32.84a1,1,0,1,0-2,0Z"/></svg>